# File created by Blade
# Date/Time:  Tue Apr 07 20:22:14 2015
# Frame Rate: 120.000 fps
#------------------------------------------------------
:FULLY-SPECIFIED
:DEGREES
1706
root 4.127876 32.892485 -9.939981 16.262386 3.766756 -4.211848
Spine -7.057286 -5.245068 -3.774694
Head 17.037366 -11.359399 9.420966
LeftShoulder -16.630008 46.699944 11.671150
LeftArm 50.994696 5.612247 -81.964422
LeftForeArm -6.895957 -0.000000 22.014447
LeftHand 12.414460 0.000000 7.354151
LeftHandThumb1 -26.253704 0.000000 33.147579
RightShoulder -7.152204 -11.382016 -13.459670
RightArm 10.496053 -11.331447 91.214765
RightForeArm 7.644942 -0.000000 17.546842
RightHand 6.167801 -0.000000 5.968759
RightHandThumb1 -24.326973 -0.000000 -32.862282
LeftUpLeg -17.275434 -0.081898 0.437525
LeftLeg 4.454790 -0.000000 -0.000000
LeftFoot -6.938704 -2.369267 -24.852630
LeftToeBase 1.136230 -0.000000 -0.000000
RightUpLeg -18.969126 -2.409259 0.425608
RightLeg 11.560379 -0.000000 -0.000000
RightFoot -10.575250 -10.204161 10.192618
RightToeBase 1.516956 -0.000000 -0.000000
1707
root 4.116053 32.894354 -9.953835 16.417627 3.738744 -4.233139
Spine -7.205509 -5.177064 -3.737135
Head 16.860040 -11.232924 9.336924
LeftShoulder -16.599895 46.693137 11.666442
LeftArm 50.963267 5.782580 -81.855225
LeftForeArm -6.998018 -0.000000 21.857694
LeftHand 12.307949 -0.000000 7.104250
LeftHandThumb1 -26.253704 0.000000 33.147579
RightShoulder -7.083453 -11.275561 -13.519481
RightArm 10.547361 -11.375508 91.163907
RightForeArm 7.699561 -0.000000 17.710293
RightHand 6.382855 -0.000000 5.876479
RightHandThumb1 -24.326973 -0.000000 -32.862282
LeftUpLeg -17.380014 0.060166 0.439890
LeftLeg 4.299688 -0.000000 -0.000000
LeftFoot -6.875479 -2.405249 -24.815947
LeftToeBase 1.319370 -0.000000 -0.000000
RightUpLeg -18.974872 -2.335413 0.450550
RightLeg 11.203924 -0.000000 -0.000000
RightFoot -10.491000 -10.218938 10.209923
RightToeBase 1.629868 -0.000000 -0.000000
1708
root 4.101713 32.896531 -9.966031 16.579633 3.718759 -4.257193
Spine -7.372241 -5.118594 -3.699998
Head 16.711510 -11.122908 9.257404
LeftShoulder -16.564427 46.695612 11.672395
LeftArm 50.942720 5.956897 -81.722514
LeftForeArm -7.032678 -0.000000 21.703528
LeftHand 12.055611 0.000000 6.891336
LeftHandThumb1 -26.253704 0.000000 33.147579
RightShoulder -7.015712 -11.179507 -13.565470
RightArm 10.594824 -11.378613 91.128007
RightForeArm 7.641182 0.000000 17.885818
RightHand 6.396918 -0.000000 5.691574
RightHandThumb1 -24.326973 -0.000000 -32.862282
LeftUpLeg -17.496923 0.170562 0.462679
LeftLeg 4.156729 -0.000000 -0.000000
LeftFoot -6.851031 -2.405015 -24.671116
LeftToeBase 1.590861 -0.000000 -0.000000
RightUpLeg -18.981606 -2.299425 0.488532
RightLeg 10.837821 -0.000000 -0.000000
RightFoot -10.395188 -10.194776 10.235697
RightToeBase 1.759495 -0.000000 -0.000000
1709
root 4.090885 32.898842 -9.980697 16.749760 3.670682 -4.256991
Spine -7.548199 -5.032451 -3.684230
Head 16.577160 -11.015995 9.163686
LeftShoulder -16.507316 46.694271 11.686996
LeftArm 50.924760 6.132168 -81.579038
LeftForeArm -7.084994 -0.000000 21.521324
LeftHand 11.807860 -0.000000 6.760546
LeftHandThumb1 -26.253704 0.000000 33.147579
RightShoulder -6.954784 -11.074760 -13.613234
RightArm 10.652433 -11.373341 91.091313
RightForeArm 7.767355 -0.000000 18.031749
RightHand 6.501805 -0.000000 5.522483
RightHandThumb1 -24.326973 -0.000000 -32.862282
LeftUpLeg -17.624941 0.248310 0.466029
LeftLeg 4.023911 -0.000000 -0.000000
LeftFoot -6.766082 -2.421298 -24.686699
LeftToeBase 1.729410 -0.000000 -0.000000
RightUpLeg -19.019665 -2.232558 0.494133
RightLeg 10.507795 -0.000000 -0.000000
RightFoot -10.307073 -10.224317 10.211492
RightToeBase 1.832949 -0.000000 -0.000000
1710
root 4.081232 32.900985 -9.995706 16.921403 3.623502 -4.262160
Spine -7.728458 -4.955394 -3.651332
Head 16.444566 -10.913603 9.049275
LeftShoulder -16.466759 46.676152 11.688491
LeftArm 50.915856 6.318935 -81.421960
LeftForeArm -7.173694 -0.000000 21.296535
LeftHand 11.633810 -0.000000 6.502495
LeftHandThumb1 -26.253704 0.000000 33.147579
RightShoulder -6.894782 -10.975350 -13.680465
RightArm 10.727593 -11.362459 91.055861
RightForeArm 7.882354 -0.000000 18.191274
RightHand 6.621475 -0.000000 5.866954
RightHandThumb1 -24.326973 -0.000000 -32.862282
LeftUpLeg -17.760996 0.278567 0.480383
LeftLeg 3.898315 -0.000000 -0.000000
LeftFoot -6.688154 -2.381747 -24.711047
LeftToeBase 1.746138 -0.000000 -0.000000
RightUpLeg -19.079192 -2.309990 0.543838
RightLeg 10.206561 -0.000000 -0.000000
RightFoot -10.183099 -10.136519 10.132655
RightToeBase 1.890782 -0.000000 -0.000000
